#!OML:ASF H:\BreakDance\Project 1\Capture day 1\Session 1\Male.ASF
:FULLY-SPECIFIED
:DEGREES
787
root -18.389 14.5647 3.32209 -229.832 196.689 704.932
lowerback 6.05414 -3.25418 -1.30592
upperback 2.15586 -4.3969 1.14489
thorax -0.976842 -2.20117 2.19778
lowerneck -20.3882 2.97417 4.42449
upperneck 164.152 -180.517 -195.888
head 178.661 -179.065 -185.696
rclavicle 5.64548e-014 -7.51406e-014
rhumerus 71.8482 -2.13007 -48.3846
rradius 25.855
rwrist -29.9415
rhand -41.7708 -79.51
rfingers 7.12502
rthumb -14.6743 -251.029
lclavicle 5.64548e-014 -7.51406e-014
lhumerus 79.4968 -4.74067 27.9091
lradius 36.0918
lwrist 63.4274
lhand -58.1975 109.884
lfingers 7.12502
lthumb -30.4343 -82.3759
rfemur -28.8042 13.3815 -25.2946
rtibia 3.91641
rfoot -13.8508 -10.9818
rtoes -4.79186
lfemur -34.5783 16.382 7.81026
ltibia 92.5563
lfoot -18.7809 0.474196
ltoes -26.4155
788
root -18.4125 14.5647 3.35626 -229.55 194.164 701.798
lowerback 6.02366 -3.88229 -1.06304
upperback 2.13221 -5.18618 1.85661
thorax -0.901527 -2.58702 2.8382
lowerneck -20.4241 3.13599 4.37454
upperneck 164.092 -180.726 -195.965
head 178.671 -179.157 -185.701
rclavicle -1.82882e-014 -6.52014e-014
rhumerus 71.3033 -3.20987 -46.3017
rradius 26.0566
rwrist -29.9623
rhand -41.9036 -80.323
rfingers 7.12502
rthumb -14.8023 -250.226
lclavicle -1.82882e-014 -6.52014e-014
lhumerus 80.1967 -4.99149 25.3514
lradius 36.0583
lwrist 66.5471
lhand -59.403 108.39
lfingers 7.12502
lthumb -31.5834 -81.1013
rfemur -30.8057 13.7299 -27.7115
rtibia 7.95062
rfoot -14.843 -12.0552
rtoes -3.30805
lfemur -32.5769 15.8886 6.66189
ltibia 89.6491
lfoot -18.4186 1.65051
ltoes -29.0213
789
root -18.4242 14.5653 3.38443 -229.407 191.388 698.467
lowerback 5.93373 -4.57436 -1.04729
upperback 2.11701 -6.07376 2.57069
thorax -0.739526 -3.02362 3.60383
lowerneck -20.4632 3.20918 4.24706
upperneck 164.119 -180.839 -196.074
head 178.698 -179.204 -185.708
rclavicle -2.54444e-014 1.27222e-014
rhumerus 70.7852 -4.43339 -44.4605
rradius 26.1204
rwrist -29.757
rhand -42.1211 -80.9473
rfingers 7.12502
rthumb -15.0118 -249.617
lclavicle -2.54444e-014 1.27222e-014
lhumerus 81.0333 -5.12334 22.8388
lradius 36.0723
lwrist 69.3516
lhand -61.0915 104.77
lfingers 7.12502
lthumb -33.1903 -77.8106
rfemur -32.2065 13.8893 -30.0907
rtibia 11.9933
rfoot -15.3966 -12.9826
rtoes -1.56644
lfemur -30.9205 15.536 5.38342
ltibia 86.3756
lfoot -17.9323 2.52788
ltoes -30.8814
790
root -18.4229 14.5635 3.40957 -229.402 188.34 694.949
lowerback 5.78539 -5.31638 -1.29925
upperback 2.05799 -7.04272 3.30148
thorax -0.525347 -3.50308 4.52824
lowerneck -20.4846 3.17805 3.97775
upperneck 164.301 -180.859 -196.234
head 178.76 -179.214 -185.71
rclavicle 3.89618e-014 5.56597e-015
rhumerus 70.3033 -5.81344 -43.1531
rradius 26.0373
rwrist -28.9965
rhand -42.4557 -81.4313
rfingers 7.12502
rthumb -15.3342 -249.157
lclavicle 3.89618e-014 5.56597e-015
lhumerus 81.9597 -5.20492 20.6494
lradius 36.0991
lwrist 71.492
lhand -63.26 96.8808
lfingers 7.12502
lthumb -35.2495 -70.3834
rfemur -33.1128 13.2497 -32.0736
rtibia 16.4203
rfoot -15.7568 -12.9708
rtoes 0.0358516
lfemur -29.6194 15.3422 3.96391
ltibia 82.7909
lfoot -17.3603 3.05991
ltoes -32.0833
791
root -18.4089 14.557 3.43655 -229.526 185.11 691.272
lowerback 5.56298 -6.07849 -1.76261
upperback 1.90416 -8.04764 4.0686
thorax -0.294169 -4.00252 5.59527
lowerneck -20.4723 3.0379 3.50009
upperneck 164.694 -180.806 -196.447
head 178.872 -179.203 -185.695
rclavicle 3.18055e-014 -2.3059e-014
rhumerus 69.8652 -7.33953 -42.4682
rradius 25.8379
rwrist -27.5506
rhand -42.9075 -81.7636
rfingers 7.12502
rthumb -15.7693 -248.859
lclavicle 3.18055e-014 -2.3059e-014
lhumerus 82.8833 -5.28854 18.977
lradius 36.1621
lwrist 72.8315
lhand -65.3784 -79.9171
lfingers 7.12502
lthumb -37.2555 -53.9191
rfemur -33.7136 12.2968 -33.9436
rtibia 21.2483
rfoot -16.0375 -12.5559
rtoes 1.01425
lfemur -28.6249 15.4044 2.45871
ltibia 78.9456
lfoot -16.7432 3.31074
ltoes -33.1694
792
root -18.3847 14.5451 3.46985 -229.837 181.801 687.433
lowerback 5.30678 -6.84965 -2.32154
upperback 1.64187 -9.06563 4.86508
thorax -0.0898447 -4.50875 6.73704
lowerneck -20.388 2.80748 2.82622
upperneck 165.307 -180.708 -196.738
head 179.035 -179.183 -185.672
rclavicle -1.39944e-013 -7.95139e-015
rhumerus 69.4552 -8.97595 -42.2889
rradius 25.5937
rwrist -25.4999
rhand -43.4322 -81.9763
rfingers 7.12502
rthumb -16.2745 -248.687
lclavicle -1.39944e-013 -7.95139e-015
lhumerus 83.7108 -5.42766 18.0632
lradius 36.23
lwrist 73.2032
lhand -65.6621 -49.6702
lfingers 7.12502
lthumb -37.5237 -23.7429
rfemur -34.0451 11.2591 -35.7495
rtibia 26.4066
rfoot -16.276 -12.02
rtoes 1.59347
lfemur -27.8488 15.6824 0.940919
ltibia 74.9139
lfoot -16.1415 3.31226
ltoes -34.0705
793
root -18.3521 14.5281 3.5133 -230.402 178.522 683.448
lowerback 5.04752 -7.61479 -2.89437
upperback 1.28995 -10.0733 5.66208
thorax 0.0735958 -5.00889 7.88191
lowerneck -20.2 2.51177 1.99065
upperneck 166.103 -180.588 -197.108
head 179.236 -179.159 -185.647
rclavicle 5.40694e-014 -8.26944e-014
rhumerus 69.0054 -10.6849 -42.339
rradius 25.3982
rwrist -23.1092
rhand -43.9587 -82.124
rfingers 7.12502
rthumb -16.7814 -248.581
lclavicle 5.40694e-014 -8.26944e-014
lhumerus 84.3764 -5.64341 18.0824
lradius 36.1964
lwrist 72.3181
lhand -61.913 -21.1447
lfingers 7.12502
lthumb -33.9711 5.64553
rfemur -34.1462 10.26 -37.4899
rtibia 31.7858
rfoot -16.583 -11.4934
rtoes 1.73895
lfemur -27.2094 16.2217 -0.524483
ltibia 70.7893
lfoot -15.603 3.33682
ltoes -35.4033
794
root -18.3142 14.5062 3.56814 -231.245 175.393 679.345
lowerback 4.77527 -8.35418 -3.41673
upperback 0.885726 -11.0436 6.4343
thorax 0.216997 -5.48971 8.96497
lowerneck -19.9231 2.16712 0.992082
upperneck 167.035 -180.462 -197.466
head 179.461 -179.136 -185.589
rclavicle -3.02153e-014 6.20208e-014
rhumerus 68.4524 -12.4464 -42.3514
rradius 25.3016
rwrist -20.6368
rhand -44.4234 -82.2542
rfingers 7.12502
rthumb -17.2288 -248.49
lclavicle -3.02153e-014 6.20208e-014
lhumerus 84.8229 -5.86956 19.1573
lradius 35.9416
lwrist 70.3913
lhand -53.7581 -5.67607
lfingers 7.12502
lthumb -26.1917 22.5369
rfemur -34.0856 9.41542 -39.1609
rtibia 37.2539
rfoot -16.9694 -11.1362
rtoes 1.79048
lfemur -26.6594 17.0076 -1.89622
ltibia 66.669
lfoot -15.1646 3.29417
ltoes -36.9274
795
root -18.2732 14.4805 3.63479 -232.358 172.485 675.129
lowerback 4.46431 -9.06386 -3.85382
upperback 0.473569 -11.9729 7.15448
thorax 0.379596 -5.9513 9.93021
lowerneck -19.5997 1.78286 -0.107618
upperneck 168.074 -180.325 -197.75
head 179.706 -179.103 -185.491
rclavicle 1.57437e-013 -1.43125e-013
rhumerus 67.7408 -14.2575 -42.1374
rradius 25.3305
rwrist -18.2907
rhand -44.7799 -82.3852
rfingers 7.12502
rthumb -17.5719 -248.389
lclavicle 1.57437e-013 -1.43125e-013
lhumerus 85.0467 -5.99227 21.122
lradius 35.4019
lwrist 67.4315
lhand -42.9376 1.0437
lfingers 7.12502
lthumb -15.7983 30.419
rfemur -33.8846 8.69389 -40.7408
rtibia 42.6665
rfoot -17.3572 -11.044
rtoes 2.30934
lfemur -26.219 18.0218 -3.17131
ltibia 62.6649
lfoot -14.8051 3.18866
ltoes -38.22
796
root -18.2341 14.4519 3.71031 -233.709 169.866 670.769
lowerback 4.06979 -9.76005 -4.11719
upperback 0.0936038 -12.88 7.80792
thorax 0.599243 -6.40429 10.6989
lowerneck -19.2429 1.37233 -1.238
upperneck 169.163 -180.172 -197.904
head 179.956 -179.053 -185.351
rclavicle -1.01778e-013 1.43125e-014
rhumerus 66.8179 -16.1038 -41.5616
rradius 25.5055
rwrist -16.2519
rhand -45.0275 -82.4943
rfingers 7.12502
rthumb -17.8101 -248.301
lclavicle -1.01778e-013 1.43125e-014
lhumerus 85.0437 -5.85834 23.6372
lradius 34.5795
lwrist 63.6418
lhand -30.604 3.65318
lfingers 7.12502
lthumb -3.90077 33.5972
rfemur -33.5958 8.08885 -42.2117
rtibia 47.8801
rfoot -17.7588 -11.1748
rtoes 3.43229
lfemur -25.9489 19.246 -4.3608
ltibia 58.8777
lfoot -14.524 3.04064
ltoes -39.4258
797
root -18.1976 14.4221 3.79425 -235.268 167.577 666.245
lowerback 3.60627 -10.4499 -4.17681
upperback -0.251551 -13.7731 8.41361
thorax 0.857617 -6.85106 11.2743
lowerneck -18.8591 0.946436 -2.35011
upperneck 170.278 -180.003 -197.906
head 180.206 -178.99 -185.168
rclavicle -3.02153e-014 6.67916e-014
rhumerus 65.6562 -17.956 -40.5731
rradius 25.8175
rwrist -14.5706
rhand -45.2002 -82.5978
rfingers 7.12502
rthumb -17.9763 -248.213
lclavicle -3.02153e-014 6.67916e-014
lhumerus 84.8327 -5.36883 26.2697
lradius 33.5556
lwrist 59.3395
lhand -18.2434 4.00277
lfingers 7.12502
lthumb 8.03544 33.83
rfemur -33.1637 7.66283 -43.5841
rtibia 52.7651
rfoot -18.1963 -11.454
rtoes 5.38305
lfemur -25.9081 20.5842 -5.48045
ltibia 55.412
lfoot -14.2591 2.90488
ltoes -40.2681
798
root -18.1645 14.3916 3.8844 -237.014 165.639 661.578
lowerback 3.12242 -11.14 -4.05281
upperback -0.574601 -14.6619 8.98809
thorax 1.11433 -7.29365 11.6955
lowerneck -18.499 0.516596 -3.38745
upperneck 171.434 -179.826 -197.746
head 180.471 -178.911 -184.951
rclavicle -6.04305e-014 4.45278e-014
rhumerus 64.3214 -19.7716 -39.3155
rradius 26.2068
rwrist -13.134
rhand -45.3249 -82.7033
rfingers 7.12502
rthumb -18.0963 -248.119
lclavicle -6.04305e-014 4.45278e-014
lhumerus 84.3592 -4.50347 28.5387
lradius 32.5395
lwrist 54.8973
lhand -7.49875 2.94261
lfingers 7.12502
lthumb 18.3911 32.0932
rfemur -32.5852 7.48681 -44.8706
rtibia 57.2191
rfoot -18.6239 -11.7998
rtoes 8.50111
lfemur -26.1193 21.9904 -6.57016
ltibia 52.3359
lfoot -14.1001 2.79202
ltoes -40.5559
799
root -18.1337 14.3605 3.98076 -238.914 164.086 656.808
lowerback 2.65985 -11.8244 -3.76583
upperback -0.885618 -15.5397 9.54587
thorax 1.33422 -7.72642 12.0024
lowerneck -18.1556 0.0969986 -4.31739
upperneck 172.577 -179.641 -197.455
head 180.735 -178.822 -184.716
rclavicle 3.49861e-014 8.26944e-014
rhumerus 62.8756 -21.5259 -37.9005
rradius 26.6103
rwrist -11.8468
rhand -45.4227 -82.7717
rfingers 7.12502
rthumb -18.1903 -248.059
lclavicle 3.49861e-014 8.26944e-014
lhumerus 83.5601 -3.3112 30.1003
lradius 31.7267
lwrist 50.8488
lhand 0.765429 1.0578
lfingers 7.12502
lthumb 26.3233 29.2512
rfemur -31.8924 7.67355 -46.0596
rtibia 61.1881
rfoot -19.0326 -12.1951
rtoes 11.8735
lfemur -26.5828 23.4069 -7.6229
ltibia 49.6953
lfoot -14.0726 2.68051
ltoes -40.4701
800
root -18.1055 14.3281 4.08126 -240.917 162.948 651.994
lowerback 2.22523 -12.4878 -3.33376
upperback -1.18475 -16.3878 10.0975
thorax 1.50933 -8.13979 12.2239
lowerneck -17.762 -0.293586 -5.16481
upperneck 173.612 -179.451 -197.071
head 180.962 -178.735 -184.466
rclavicle 3.81667e-014 3.18055e-014
rhumerus 61.387 -23.2295 -36.4497
rradius 26.9642
rwrist -10.5921
rhand -45.4942 -82.7868
rfingers 7.12502
rthumb -18.2591 -248.05
lclavicle 3.81667e-014 3.18055e-014
lhumerus 82.4195 -1.91346 30.9029
lradius 31.1484
lwrist 47.5076
lhand 5.48134 -1.1634
lfingers 7.12502
lthumb 30.829 26.2705
rfemur -31.1237 8.32851 -47.1034
rtibia 64.6416
rfoot -19.3751 -12.6332
rtoes 14.9931
lfemur -27.2862 24.7405 -8.63561
ltibia 47.4935
lfoot -14.2476 2.5979
ltoes -39.9189
801
root -18.079 14.2927 4.18646 -242.963 162.171 647.247
lowerback 1.82536 -13.0947 -2.89198
upperback -1.46926 -17.1684 10.6204
thorax 1.65581 -8.5189 12.4146
lowerneck -17.2476 -0.637939 -5.91188
upperneck 174.507 -179.26 -196.681
head 181.133 -178.655 -184.232
rclavicle -9.54166e-015 6.36111e-015
rhumerus 59.8229 -24.9189 -34.9759
rradius 27.2464
rwrist -9.33563
rhand -45.5227 -82.727
rfingers 7.12502
rthumb -18.2866 -248.113
lclavicle -9.54166e-015 6.36111e-015
lhumerus 81.0173 -0.471341 31.2437
lradius 30.6258
lwrist 44.3295
lhand 6.59001 -3.37424
lfingers 7.12502
lthumb 31.8853 23.8546
rfemur -30.3438 9.46735 -48.0504
rtibia 67.5807
rfoot -19.6718 -13.1137
rtoes 17.2879
lfemur -28.2058 25.9893 -9.68807
ltibia 45.7042
lfoot -14.5989 2.50921
ltoes -39.1591
